<?xml version="1.0" encoding="utf-8"?>
<!-- Generator: Adobe Illustrator 16.0.0, SVG Export Plug-In . SVG Version: 6.00 Build 0)  -->
<!DOCTYPE svg PUBLIC "-//W3C//DTD SVG 1.1//EN" "http://www.w3.org/Graphics/SVG/1.1/DTD/svg11.dtd">
<svg version="1.1" id="Calque_3" xmlns="http://www.w3.org/2000/svg" xmlns:xlink="http://www.w3.org/1999/xlink" x="0px" y="0px"
	 width="333.476px" height="282.604px" viewBox="0 0 333.476 282.604" enable-background="new 0 0 333.476 282.604"
	 xml:space="preserve">
<g>
	<g>
		<path fill="#03A9F4" d="M230.685,244.106c-1.064-0.234-2.228-0.559-3.51-1.232c-0.33-0.177-0.585-0.157-0.78,0.049
			c-0.309,0.325-0.832,0.322-1.409-0.087c-0.946-0.665-1.744-0.916-2.568-1.092c-0.816-0.173-1.659-0.271-2.52-0.566
			c-1.097-0.38-2.212-0.633-3.356-0.941l-0.857-0.241l-0.429-0.133l-0.534-0.181c-0.715-0.249-1.422-0.529-2.115-0.859
			c-2.023-0.961-4.181-2.067-6.757-1.23c-0.348,0.111-0.901,0.012-1.051-0.277c-0.611-1.15-1.724-1.072-2.668-1.411l-5.394-1.948
			c0.016-0.049,0.03-0.095,0.045-0.142c4.232,1.074,8.464,2.147,12.709,3.224c2.106,0.532,4.216,1.065,6.331,1.6
			c1.484,0.307,2.974,0.614,4.467,0.922c-0.247-0.952-0.679-0.354-0.893-1.357c3.229,1.466,6.605,2.464,9.388,3.016
			c2.813,0.563,5.036,0.682,6.789,0.688c-1.461-3.383-2.786-6.419-3.816-9.091l-0.539-0.425l2.472,5.968
			c-2.141-4.488-4.285-8.985-6.43-13.482c-1.791-3.69-3.406-6.851-5.07-9.212c0.306,0.763,0.807,1.525,1.204,2.363
			c1.419,3.004,2.853,6.425,4.62,10.452c1.275,2.92,2.978,6.476,4.474,10.113l-0.148-0.01c-2.535-0.197-6.032-0.891-10.206-1.727
			c-0.989-0.199-2.025-0.426-3.103-0.668l-1.647-0.374l-0.422-0.097l-0.218-0.05l-0.374-0.106l-1.498-0.426
			c-3.995-1.129-8.002-2.218-12.044-3.185c-5.508-1.318-10.752-3.394-16.231-4.771c-2.603-0.655-5.173-1.413-7.734-2.198
			l-8.557-2.679c-1.405-0.434-2.925-0.91-4.225-0.883c-1.293,0.029-2.212-0.395-3.67-2.079c2.369,0.685,4.723,1.465,7.066,2.074
			c1.174,0.305,2.352,0.569,3.559,0.769c0.604,0.1,1.214,0.184,1.837,0.248c0.479,0.012,0.957,0.001,1.441-0.035
			c-0.164-0.146-0.407-0.225-0.641-0.36c-0.117-0.068-0.231-0.15-0.333-0.262c-0.051-0.057-0.099-0.119-0.142-0.192
			c-0.057-0.077-0.126-0.171-0.181-0.271c0.23-0.021,0.388-0.051,0.518-0.067c0.14-0.014,0.269-0.009,0.387,0.02
			c0.237,0.056,0.432,0.204,0.583,0.48c0.262,0.48,0.736,0.532,1.141,0.738c2.402,1.237,5.371,0.969,7.505,2.918
			c0.241,0.219,0.562,0.154,0.865-0.001c0.593-0.3,1.1-0.113,1.62,0.037l12.652,3.641l12.798,3.671
			c0.51,0.145,1.208,0.146,1.356,0.797c0.295,1.298,1.157,1.001,1.964,1.067c0.025-0.708-0.736-0.43-0.688-1.169
			c0.412,0.086,0.782,0.14,1.138,0.237l0.479,0.127c0.167,0.046,0.176,0.033,0.271,0.053l0.445,0.067l0.866,0.123l1.628,0.222
			c1.043,0.147,1.993,0.304,2.952,0.579c0.396,0.115,0.585-0.162,1.52,1.229c0.293,0.432,0.662,0.515,0.446,0.048
			c-0.854-1.881-0.276-1.154-0.103-1.132c0.846,0.095,2.054,0.718,2.486,0.368c0.172-0.158,0.642,0.082,1.085,0.269
			c0.435,0.185,0.843,0.315,0.669-0.142c-0.225-0.361-0.502-0.774-0.845-1.249c-0.316-0.438-0.248-0.502-0.122-0.491
			c0.437,0.044,0.254-0.61-0.401-1.632c-1.29-2.008-1.855-3.218-2.328-4.362c-0.467-1.126-0.841-2.187-1.605-3.403
			c-0.841-1.33-1.38-2.387-1.896-3.393c-0.513-0.995-1.003-1.94-1.667-2.768c0.987,1.477,1.685,3.2,2.428,4.985
			c0.752,1.819,1.551,3.7,2.991,6.382c-0.873-0.733-1.17-1.109-1.806-1.618c-0.103,0.181-0.155,0.378,0.644,1.46
			c1.229,1.024,0.616,0.223,0.922,0.338c0.744,1.326,1.418,2.659,2.077,4.024l-0.007,0.007c-0.032,0.037,0.072,0.255-0.367-0.179
			c-2.255-2.25-1.775-1.543-1.871-1.337c-0.021,0.072,0.206,0.503-0.196,0.068c-0.985-1.076-0.854-0.743-0.863-0.512
			c-0.006,0.523-0.642,0.242-1.202-0.047c-0.563-0.28-1-0.55-1.29,0.202c0.264,0.444,0.328,0.225,0.738,1.176
			c-0.212,0.157-0.451,0.352-0.876-0.362c-0.109-0.577,0.07-0.366-0.109-1.034c-0.242-0.477-0.356-0.449-0.489-0.457
			c-0.616-0.025-1.313-0.019-2.089-0.115c-0.207-0.024-0.426-0.021-0.659-0.008c-0.138-0.002-0.188,0.031-0.406,0.005l-1.071-0.23
			c-1.426-0.311-2.841-0.644-4.189-1.139c-4.205-1.547-8.562-2.61-12.773-4.122c-3.781-1.362-7.714-2.297-11.521-3.586
			c-1.724-0.589-3.704-0.426-5.204-1.626c-0.984-0.79-2.156-0.788-3.346-0.805c-0.729-0.006-1.663,0.079-1.893-0.739
			c-0.169-0.598-0.457-0.873-0.798-1.033c-0.171-0.079-0.354-0.131-0.544-0.179l-0.285-0.074c-0.08-0.021-0.287-0.089-0.424-0.139
			c-1.504-0.541-2.954-0.469-4.361-0.761c-3.595-0.743-7.008-2.056-10.515-3.357c-1.949,1.394-3.912,2.821-5.777,4.418
			c-1.344,1.152-2.83,2.012-4.274,3.006c-0.719,0.496-1.424,1.021-2.066,1.613c-0.16,0.147-0.317,0.3-0.468,0.456
			c-0.097,0.116-0.179,0.23-0.263,0.354c-0.164,0.247-0.31,0.517-0.432,0.814c-0.135,0.327-0.43,0.718-0.76,0.579
			c-1.289-0.541-1.567,0.532-2.2,1.053c-2.527,2.071-4.993,4.225-7.619,6.161c-3.547,2.614-6.79,5.619-10.302,8.271
			c-3.439,2.599-6.887,5.187-10.406,7.674c-0.753,0.535-0.777,1.775-1.621,2.037c-1.989,0.613-3.431,1.929-4.979,3.198l-1.084,0.882
			c-0.267,0.213-0.541,0.42-0.816,0.622c-0.552,0.404-1.113,0.788-1.669,1.173c-1.117,0.773-2.194,1.535-3.307,2.596
			c-0.178,0.169-0.37,0.213-0.487-0.261c0.206-0.987,0.457-0.475,0.652-1.139c-0.172-1.098-0.639,0.129-0.714-1.349
			c0.305-0.999,0.587-1.829,0.752-1.159c0.401,1.457,0.789,0.201,1.139-0.018c0.146-0.093,0.248-0.42,0.43-0.279
			c0.161,0.308,0.049,0.881,0.266,1.142c0.197-0.023,0.479-0.255,0.38-0.762c-0.302-1.587,0.051-1.473,0.219-1.808
			c0.218-0.464,0.703-0.222,1.081-0.45c0.169,0.461,0.308,0.837,0.444,1.206c0.438,0.168,0.795,0.078,0.988-0.2
			c0.096-0.139,0.151-0.325,0.156-0.551c0.003-0.112-0.007-0.235-0.031-0.367c-0.03-0.127,0.028-0.337,0.016-0.515
			c0.001-0.612,0.382-0.853,0.644-1.229c0.938-1.351,2.508-1.884,3.637-2.968c1.423-1.365,3.127-2.319,4.561-3.499
			c0.37,0.133,0.386,0.36,0.495,0.541c0.136,0.223,0.302,0.424,0.454,0.633c0.905-0.535,1.206-0.98,1.123-1.621
			c-0.214-1.679,0.675-2.651,2.329-2.466c-0.278,0.322-0.527,0.611-0.894,1.036c0.987-0.167,1.69-0.499,2.23-0.991
			c1.211-1.117,2.753-1.86,3.289-3.759c0.26-0.924,1.008-1.664,2.135-1.457c1.364,0.25,2.396-0.255,2.398-1.619
			c0.001-0.889,0.407-1.406,1.028-1.459c2.65-0.247,3.855-2.812,6.367-3.251c-0.532-0.038-0.941,0.413-1.528-0.233
			c0.398-1.47,1.049-1.783,2.389-1.134c0.562,0.272,0.887-0.137,0.806-0.464c-0.424-1.691,0.583-2.158,1.589-2.332
			c1.148-0.198,1.786-0.914,2.539-1.635c0.625-0.598,1.188-1.296,1.854-1.849c0.333-0.276,0.691-0.517,1.095-0.689
			c0.302-0.099,1.133-0.481,1.812-0.607c0.681-0.143,1.195-0.587,1.374-1.302c0.356-1.422,1.48-2.037,2.486-2.553
			c0.606,0.16-0.135,0.972,0.708,1.109c0.756-2.44,2.99-3.724,4.704-5.655c0.917-1.026,2.003-2.07,2.808-1.212
			c0.039,0.06,0.071,0.118,0.103,0.18c0.383,0.724,0.994,0.831,1.578,0.99c0.936,0.262,1.919,0.229,2.598,1.7
			c0.332,0.718,1.055,0.739,1.658,0.312c0.852-0.614,1.48-1.87,3.211-1.21c1.762,0.669,3.455,1.588,5.056,2.341
			c-0.061,0.787-0.916,0.343-1.215,0.764c0.491,0.16,0.973,0.352,1.447,0.548c0.453,0.188,0.904,0.374,1.352,0.56
			c0.574,0.232,1.167,0.391,1.85,0.277c1.833-0.306,3.507,0.154,4.946,1.087c0.905,0.579,1.897,0.761,2.816,1.19
			c1.127,0.525,1.802,0.061,2.495-1.354c-1.746-0.632-3.403-1.438-5.175-1.827c-1.484-0.325-2.925-0.784-4.369-1.233l-2.452-0.747
			c-1.272-0.397-2.544-0.771-3.811-1.101c-2.381-0.618-4.793-1.677-7.612-3.58c1.451,0.088,2.481,1.215,3.415,0.679
			c-2.802-0.963-5.583-1.858-8.359-2.867c-3.239,2.35-6.455,4.438-10.079,6.078c1.045,0.166,1.88-1.216,2.97-1.062
			c-0.412,0.376-0.717,0.682-1.04,0.953c-1.833,1.536-3.686,2.956-5.57,4.336l-1.239,0.896l-0.799,0.558l-1.612,1.096
			c-0.527,0.354-1.001,1.141-1.774,0.766c-1.005-0.488-1.305,0.096-1.521,0.655c-0.781,2.004-3.128,2.27-3.671,4.532
			c-0.466-0.538-0.237-1.104-0.77-1.108c-0.947-0.008-1.418,0.663-1.995,1.369c0.631,0.142,0.945-0.552,1.617,0.205
			c-0.625,0.383-0.534,1.987-2.038,0.722c-0.138-0.115-0.488,0.069-0.712,0.166c-0.72,0.312-1.121,0.962-1.498,1.658
			c-0.302,0.556-0.493,1.332-1.27,1.293c-0.854-0.044-1.417,0.396-1.883,0.898c-1.814,1.944-4.258,3.145-5.728,5.504
			c-0.438,0.7-1.163,1.125-2.203,0.536c-0.552-0.312-0.674,0.048-0.96,0.303c-1.034,0.912-2.019,1.897-3.272,2.514
			c-1.179,0.583-2.61,0.733-3.557,1.705c-0.14,0.142-0.474,0.132-0.32,0.611c0.355,1.091-0.118,1.562-1.067,1.129
			c-0.519-0.24-0.786,0.043-1.041,0.289c-0.458,0.442-0.863,0.95-1.303,1.449c0.55,0.325,0.634-0.461,1.138-0.117
			c-1.077,0.993-1.615,1.49-2.252,1.791c-0.318,0.15-0.661,0.253-1.108,0.343c-0.113,0.021-0.231,0.043-0.356,0.066
			c-0.055,0.005-0.147,0.036-0.176,0.02l-0.084-0.057c-0.115-0.079-0.243-0.175-0.38-0.289c0.598,1.087,0.565,1.4,0.413,1.469
			c-0.161,0.074-0.426-0.106-0.511,0.151c-0.368-1.301-0.16-1.153-0.379-1.857c-0.116,0.084-0.204,0.148-0.265,0.192
			c0.604,1.917,0.039,1.022,0.042,1.491c-0.303-1.367-0.326-1.132-0.318-0.799c0.012,0.407-0.026,0.857-0.158,0.421
			c-0.322-1.161-0.309-0.553-0.471,0.283c-0.059,0.342-0.15,0.707-0.205,0.331c-0.09-0.679-0.153-0.846-0.244-0.847
			c-0.085-0.005-0.199,0.157-0.258,0.042c-0.069-0.154-0.203,0.077-0.367,0.325c-0.158,0.243-0.347,0.504-0.371,0.296
			c-0.024-0.266-0.167-0.125-0.375,0.12c-0.202,0.24-0.469,0.586-0.591,0.621c-0.036,0.009-0.163,0.202-0.309,0.426
			c-0.187,0.244-0.421,0.511-0.032-0.353c0.156-0.348,0.304-0.682-0.346,0.386c-0.12,0.196-0.157,0.216-0.083,0.067
			c0.463-0.92,0.383-0.88,0.315-0.897c-0.067-0.008-0.123-0.071,0.394-0.934c0.172-0.287,0.156-0.316-0.06-0.04
			c-1.014,1.269-0.292,0.056-0.206-0.175c0.066-0.2,0.103-0.335-0.202-0.106c-0.307,0.227-0.394,0.17-0.301-0.039
			c0.301-0.37,1.12-1.124,1.242-1.324c-0.987,0.913-0.967,0.745-0.888,0.561c0.71-0.57,0.759-0.545,1.167-0.877
			c0.589-0.6,0.226-0.289,0.103-0.239c-0.289,0.171-1.065,0.512-0.206-0.187c0.441-0.34,0.438-0.347,0.117-0.213
			c-0.211,0.09-0.509,0.209-0.429,0.125c0.485-0.452-0.047-0.445-0.027-0.739c0.01-0.093,0.557-0.209,0.863-0.25
			c0.103-0.016,0.152-0.026,0.165-0.036c0.013-0.024-0.011,0.048-0.06-0.184c-0.095-0.325-0.277-0.647-0.423-0.965
			c-0.291-0.633-0.434-1.243,0.562-1.811c-0.563-1.271,0.135-2.614-0.209-4.117c-0.978,1.365-0.054,2.675-0.614,3.947
			c-0.999-0.573-0.92-1.165-0.761-1.808c0.466-1.849,0.125-3.833,1.671-5.498c0.054-0.056,0.026-0.165,0.003-0.243
			c-0.441-1.514,0.038-3.145-1.08-4.459c0.279-0.431,1.069-0.085,1.035-0.691c-0.202-0.329-1.218-0.458-0.835-0.99
			c0.696-0.966,0.038-1.98,0.391-2.937c0.197-0.548,0.08-0.837-0.651-1.183c-0.93-0.439-1.667-1.143-1.282-2.116
			c0.929-0.097,1.172,0.725,2.208,0.631c0.372-1.236,0.453-2.506-0.172-3.746c-0.155-0.303-0.591-0.687-0.332-0.891
			c0.838-0.659,0.365-1.38,0.478-2.091c0.424-2.765-0.107-5.513,0.059-8.266c0.121-1.987,0.153-3.975,0.139-5.961l-0.153-7.825
			c-0.072-3.414-0.126-6.813,0.003-10.283c0.07-2.058-0.406-3.847-0.566-5.734c-1.225-0.688-2.287-1.446-3.01-2.484
			c-0.157-0.227-0.663-0.411-0.956-0.585c-0.751,0.082,0.347,0.866-0.75,0.819c-1.035-0.663-2.949-1.106-2.608-2.323
			c0.227-0.832-0.387-1.121-1.156-1.596c-3.822-2.327-8.518-5.933-9.913-6.356c-1.721-0.757-3.028-2.281-4.693-3.169
			c-3.459-1.844-6.3-4.636-9.911-6.242c-1.771-0.79-2.876-2.583-4.763-3.253c-1.093-0.388-2.03-1.105-3.025-1.694
			c-0.553-0.322-0.992-0.747-0.569-1.732c-0.532-0.029-1.145,0.4-1.596,0.104c-1.72-1.146-3.873-1.692-5.195-3.358
			c-0.948-1.188-2.274-1.917-3.416-2.636c-1.008-0.638-2.057-1.201-2.886-2.117c-0.105-0.118-0.278-0.206-0.443-0.208
			c-0.308-0.002-0.599-0.035-0.878-0.092c-0.14-0.028-0.276-0.062-0.41-0.103l-0.198-0.063c-0.067-0.023-0.041,0.014-0.064,0.016
			c-0.095,0.079-0.154,0.088-0.199,0.08c-0.095-0.02-0.115-0.091-0.443,0.085c-0.321,0.143,0.792-0.788,0.651-0.697
			c-0.322,0.132,0.042-0.14-0.498,0.065c-0.375,0.123-0.278,0.007-0.23-0.054c0.038-0.067,0.024-0.08-0.817,0.088
			c-0.124,0.024-0.13,0.008-0.001-0.033c0.676-0.209,0.618-0.213,0.535-0.231c-0.076-0.014-0.177-0.042,0.605-0.173
			c0.109-0.018,0.132-0.025,0.013-0.011c-1.723,0.204-1.219,0.053-0.444-0.028c0.426-0.051,0.45-0.051-0.339-0.04
			c-0.648,0.049,0.224,0.019-0.781,0.093c-0.869,0.042-0.596,0-0.39-0.025c0.497-0.065,0.593-0.086-0.138-0.113
			c-1.171-0.054-0.425-0.135-0.075-0.156c0.489-0.04,0.386-0.081,0.101-0.156c-0.279-0.072-0.739-0.178-0.795-0.24
			c-0.02-0.02,0.05-0.028,0.128-0.032c0.393,0.011,0.753,0.048-0.292-0.19c-0.032-0.007,0.002-0.003,0.058,0.005
			c2.096,0.302,3.073,0.566,0.504-0.108c-0.303-0.082,0.11-0.002,0.199,0.007c0.105,0.007,0.499,0.093,0.299,0.024
			c-0.985-0.35-0.696-0.423-0.209-0.361c0.148,0.025-0.669-0.353,0.741,0.168c0.128,0.122,0.275,0.226,0.435,0.32
			c0.12,0.04,0.236,0.078,0.351,0.115c0.098-0.03,0.196-0.06,0.302-0.091c-0.972-0.43-0.419-0.148-1.887-0.77
			c-0.188-0.282,0.198-0.366,0.573-0.387c0.391-0.026,0.77,0.01,0.963-0.152c0.194,0.177,0.445,0.511,0.665,0.742
			c0.51,0.479,0.227,0.069,0.327,0.058c0.089-0.01,0.102,0.009-0.267-1.003c-0.145-0.415-0.084-0.529,0.02-0.557
			c0.052-0.014,0.114-0.006,0.174-0.005c0.012-0.001,0.003,0.003,0.033-0.004l0.138-0.036l0.273-0.078
			c0.181-0.054,0.36-0.113,0.533-0.181c-0.132,0.67-0.46,0.845-0.766,0.934c-0.037,0.007-0.105-0.056-0.036,0.236
			c0.07,0.119,0.138,0.235,0.205,0.35l0.02,0.036c0.017,0.009,0.071,0.005,0.104,0.008l0.228,0.001
			c0.151-0.002,0.299-0.011,0.444-0.028c0.582-0.067,1.122-0.26,1.619-0.648c-0.333-0.604-0.86,0.048-1.257-0.736
			c0.635-0.886,1.601-0.781,2.5-1.02c0.101,0.986,0.25,1.76,1.147,1.423c-0.113-1.729,0.251-2.011,2.954-2.203
			c-0.823,0.059-1.382,0.499-1.571,1.477c0.455,0.261,0.718-0.179,1.079-0.221c0.708-0.075,1.612,0.271,1.35-1.37
			c-0.066-0.413,0.824-0.876,1.021-0.372c0.456,1.165,1.176,0.767,1.498,0.657c1.721-0.579,3.52-1.001,5-2.246
			c1.05,0.627,2.955,0.049,4.296-1.319c-0.033-0.487-0.653,0.01-0.596-0.701c0.39-0.461,0.965-0.45,1.484-0.541
			c0.228,0.496-0.252,0.869,0.279,1.356c0.704-0.405,1.618-0.132,2.42-0.35c3.237-0.882,6.468-1.788,9.676-2.77l8.243-2.578
			l4.363-1.371l8.021-2.462c2.782-0.845,5.489-1.777,8.23-2.637c0.709-0.208,1.424-0.418,2.146-0.629
			c1.01-3.107,2.116-6.483,1.775-10.453c0.864,1.241,1.331,0.611,1.344-0.429c0.015-2.32,0.983-4.456,1.667-6.077
			c0.279-0.659,0.536-1.328,0.776-2.002c0.149-0.375,0.264-0.704,0.375-1.064c0.218-0.707,0.386-1.426,0.543-2.147
			c0.315-1.442,0.591-2.893,1.154-4.264c0.817-1.983,0.922-4.192,1.591-6.259c1.139-3.539,1.694-7.261,2.549-10.891
			c0.384-1.611,0.531-3.303,0.989-4.861c0.843-2.899,1.053-5.939,1.885-8.832c0.582-2.021,0.916-4.125,1.378-6.168l0.343-1.571
			l0.042-0.197l-0.001-0.054l-0.004-0.101l-0.002-0.206c0.003-0.275,0.038-0.557,0.141-0.796c0.211-0.484,0.172-1.129,0.143-1.925
			c-0.033-0.784-0.058-1.719,0.082-2.465c0.184-0.993,0.283-2.287,0.469-3.579l0.699-4.861l0.181,0.125
			c0.472,0.324,0.99,0.813,1.523,1.09c0.8,0.411,1.693,0.76,2.847,1.081c0.582,0.165,1.183,0.65,1.792,1.184
			c0.613,0.539,1.236,1.125,1.96,1.622c0.514,0.352,1.256,0.455,1.675,1.142c0.493,0.816,1.119,1.438,1.858,2.05
			c1.089,1.069,2.304,2.144,3.463,3.199c1.15,1.049,2.183,2.211,3.405,3.205c0.51,0.414,0.792,1.051,1.558,1.272
			c0.413,0.12,0.709,0.461,1.023,0.734c3.552,3.158,6.177,7.142,10.339,9.788c1.809,1.15,3.101,2.98,4.662,4.477
			c3.901,3.733,7.613,7.638,11.49,11.396c2.693,2.611,5.224,4.909,7.521,6.902c1.783-0.441,3.549-0.879,5.311-1.315
			c-0.033-0.377-0.445,0.131-0.414-0.601c0.977,0.328,2.041-0.006,3.027-0.24c0.288-0.066,0.571-0.156,0.848-0.256l0.421-0.159
			l0.507-0.173c0.675-0.233,1.349-0.467,2.039-0.612c3.54-0.736,7.021-1.781,10.429-3.141c2.761-1.099,5.428-2.547,8.009-4.218
			c0.794-0.511,1.299-1.438,1.907-2.389c-1.974,0.179-3.881-0.428-5.823-0.458c-4.263-0.07-8.527-0.697-12.8-0.714
			c-0.979-0.004-1.96-0.034-2.941-0.076l-1.472-0.072l-0.735-0.042c-0.067-0.027-0.097-0.056-0.145-0.085
			c-0.35-0.23-0.61-0.477-0.825-0.65l-0.365-0.284c-0.121-0.531-0.225-0.956-0.116-1.392l0.021-0.078l0.011-0.037l-0.146-0.238
			l-0.618-0.989l-1.267-1.958c-0.855-1.297-1.731-2.579-2.615-3.856c-1.767-2.553-3.564-5.084-5.293-7.666
			c-2.75-4.1-5.777-8.003-8.746-11.946l-6.76-8.933l-10.035-13.088c-5.466-7.103-10.98-14.038-16.404-20.945L136.498,0
			l-29.531,6.743c-1.514,5.24-3.004,10.495-4.461,15.692c-2.076,7.403-4.115,14.667-6.279,21.849l-0.616,2.118l-0.564,2.037
			l-1.08,4.087c-0.707,2.729-1.401,5.462-2.155,8.177c-1.493,5.393-3.1,10.754-4.632,16.137l-3.764,13.451
			c-0.12,0.509-0.374,0.929-0.507,1.404l-0.178,0.066l-0.75,0.329l-0.391,0.178l-0.2,0.092l-1.181,0.391l-9.729,3.236l-20.991,7.032
			l-8.803,2.895l-4.401,1.449l-7.611,2.449L0,119.218v28.043c1.217,0.765,2.443,1.533,3.645,2.292L22.24,161.34l7.764,5.025
			c1.743,1.125,3.493,2.239,5.279,3.296c5.144,3.048,10.067,6.433,15.216,9.471c4.539,2.681,8.795,5.813,13.227,8.668l3.384,2.159
			l1.698,1.069l0.531,0.323l0.366,0.214l2.998,1.762l0.198,0.12l0.102,2.655l0.123,3.934c0.096,3.694,0.461,7.391,0.339,11.08
			c-0.177,5.521,0.231,11.028,0.36,16.54c0.049,2.108,0.194,4.228,0.206,6.328c0.016,2.686,0.015,5.375,0.106,8.062
			c0.019,0.6,0.141,1.207,0.232,1.81c0.046,0.302,0.084,0.602,0.098,0.9c0.007,0.148,0.008,0.297,0,0.445
			c-0.007,0.2-0.022,0.438-0.047,0.655c-0.39,3.428,0.01,6.831,0.344,9.954c0.218,2.043,0.205,4.139,0.193,6.264
			c-0.012,2.117-0.023,4.264,0.195,6.21c0.226,1.996,0.317,4.117,0.363,6.281l22.256,8.037c2.883-2.252,5.744-4.498,8.535-6.656
			l9.146-7.052l2.25-1.74l1.925-1.509l3.206-2.579c7.161-5.818,14.194-11.801,21.42-17.536c3.553-2.818,7.051-5.707,10.521-8.631
			l2.597-2.199l2.009-1.788l4.235-3.765l0.358,0.088c6.375,1.516,16.039,4.212,24.68,6.304c7.482,1.828,14.921,3.813,22.414,5.613
			l2.279,0.54l1.141,0.264l1.033,0.223l3.97,0.808c2.558,0.497,4.926,0.912,7.116,1.285c3.034,0.515,5.729,0.918,8.08,1.191
			c-0.454-0.436-0.635-0.504-0.815-0.566C232.731,244.493,231.758,244.344,230.685,244.106z"/>
		<path fill="#03A9F4" d="M212.914,226.426c-0.251-0.474-0.658-0.516-1.055-0.588c-1.733-0.289-3.461-0.577-5.191-0.866
			c-0.073-0.01-0.125-0.103-0.181-0.151c-0.037-0.23,0.09-0.276,0.223-0.316c0.043-0.016,0.119-0.049,0.121-0.039
			c0.05,0.189,0.181-0.249,0.247-0.305c-5.744-1.8-11.344-3.554-16.944-5.309c0.335,0.493,0.848,0.658,1.009,1.402
			c-0.571-0.132-1.085-0.251-1.6-0.37c1.088,0.229,1.836,1.042,2.586,1.815c-0.103,0.271-0.397,0.131-0.384,0.473
			c0.616,0.354,1.314,0.153,1.965,0.037c0.418-0.392,0.042-0.971,0.451-1.352c0.715-0.072,1.375,0.144,1.87,0.591
			c1.72,1.543,3.571,2.55,5.88,2.928c1.941,0.319,3.877,0.945,5.744,1.79c1.918,0.872,3.913,1.552,5.955,2.099
			c1.021,0.273,2.054,0.513,3.094,0.727l1.566,0.303c0.247,0.042,0.558,0.105,0.753,0.126l0.2-0.083
			c0.39-0.179,0.687-0.214,0.975-0.345c-0.181-0.917-0.48-0.213-0.757-0.359c-0.033-0.019-0.064-0.042-0.095-0.068
			c0.021,0-0.095-0.05-0.204-0.098l-0.311-0.138c-0.413-0.184-0.826-0.364-1.249-0.519c-0.846-0.311-1.727-0.517-2.713-0.432
			C214.148,227.441,213.336,227.224,212.914,226.426z"/>
		<path fill="#03A9F4" d="M193.37,227.896l-2.757-0.998C191.438,227.488,192.171,228.328,193.37,227.896z"/>
		<path fill-rule="evenodd" clip-rule="evenodd" fill="#03A9F4" d="M230.685,244.106c-1.064-0.234-2.228-0.559-3.51-1.232
			c-0.33-0.177-0.585-0.157-0.78,0.049c-0.309,0.325-0.832,0.322-1.409-0.087c-0.946-0.665-1.744-0.916-2.568-1.092
			c-0.816-0.173-1.659-0.271-2.52-0.566c-1.097-0.38-2.212-0.633-3.356-0.941l-0.857-0.241l-0.429-0.133l-0.534-0.181
			c-0.715-0.249-1.422-0.529-2.115-0.859c-2.023-0.961-4.181-2.067-6.757-1.23c-0.348,0.111-0.901,0.012-1.051-0.277
			c-0.611-1.15-1.724-1.072-2.668-1.411l-5.394-1.948c0.016-0.049,0.03-0.095,0.045-0.142c4.232,1.074,8.464,2.147,12.709,3.224
			c2.106,0.532,4.216,1.065,6.331,1.6c1.484,0.307,2.974,0.614,4.467,0.922c-0.247-0.952-0.679-0.354-0.893-1.357
			c3.229,1.466,6.605,2.464,9.388,3.016c2.813,0.563,5.036,0.682,6.789,0.688c-1.461-3.383-2.786-6.419-3.816-9.091l-0.539-0.425
			l2.472,5.968c-2.141-4.488-4.285-8.985-6.43-13.482c-1.791-3.69-3.406-6.851-5.07-9.212c0.306,0.763,0.807,1.525,1.204,2.363
			c1.419,3.004,2.853,6.425,4.62,10.452c1.275,2.92,2.978,6.476,4.474,10.113l-0.148-0.01c-2.535-0.197-6.032-0.891-10.206-1.727
			c-0.989-0.199-2.025-0.426-3.103-0.668l-1.647-0.374l-0.422-0.097l-0.218-0.05l-0.374-0.106l-1.498-0.426
			c-3.995-1.129-8.002-2.218-12.044-3.185c-5.508-1.318-10.752-3.394-16.231-4.771c-2.603-0.655-5.173-1.413-7.734-2.198
			l-8.557-2.679c-1.405-0.434-2.925-0.91-4.225-0.883c-1.293,0.029-2.212-0.395-3.67-2.079c2.369,0.685,4.723,1.465,7.066,2.074
			c1.174,0.305,2.352,0.569,3.559,0.769c0.604,0.1,1.214,0.184,1.837,0.248c0.479,0.012,0.957,0.001,1.441-0.035
			c-0.164-0.146-0.407-0.225-0.641-0.36c-0.117-0.068-0.231-0.15-0.333-0.262c-0.051-0.057-0.099-0.119-0.142-0.192
			c-0.057-0.077-0.126-0.171-0.181-0.271c0.23-0.021,0.388-0.051,0.518-0.067c0.14-0.014,0.269-0.009,0.387,0.02
			c0.237,0.056,0.432,0.204,0.583,0.48c0.262,0.48,0.736,0.532,1.141,0.738c2.402,1.237,5.371,0.969,7.505,2.918
			c0.241,0.219,0.562,0.154,0.865-0.001c0.593-0.3,1.1-0.113,1.62,0.037l12.652,3.641l12.798,3.671
			c0.51,0.145,1.208,0.146,1.356,0.797c0.295,1.298,1.157,1.001,1.964,1.067c0.025-0.708-0.736-0.43-0.688-1.169
			c0.412,0.086,0.782,0.14,1.138,0.237l0.479,0.127c0.167,0.046,0.176,0.033,0.271,0.053l0.445,0.067l0.866,0.123l1.628,0.222
			c1.043,0.147,1.993,0.304,2.952,0.579c0.396,0.115,0.585-0.162,1.52,1.229c0.293,0.432,0.662,0.515,0.446,0.048
			c-0.854-1.881-0.276-1.154-0.103-1.132c0.846,0.095,2.054,0.718,2.486,0.368c0.172-0.158,0.642,0.082,1.085,0.269
			c0.435,0.185,0.843,0.315,0.669-0.142c-0.225-0.361-0.502-0.774-0.845-1.249c-0.316-0.438-0.248-0.502-0.122-0.491
			c0.437,0.044,0.254-0.61-0.401-1.632c-1.29-2.008-1.855-3.218-2.328-4.362c-0.467-1.126-0.841-2.187-1.605-3.403
			c-0.841-1.33-1.38-2.387-1.896-3.393c-0.513-0.995-1.003-1.94-1.667-2.768c0.987,1.477,1.685,3.2,2.428,4.985
			c0.752,1.819,1.551,3.7,2.991,6.382c-0.873-0.733-1.17-1.109-1.806-1.618c-0.103,0.181-0.155,0.378,0.644,1.46
			c1.229,1.024,0.616,0.223,0.922,0.338c0.744,1.326,1.418,2.659,2.077,4.024l-0.007,0.007c-0.032,0.037,0.072,0.255-0.367-0.179
			c-2.255-2.25-1.775-1.543-1.871-1.337c-0.021,0.072,0.206,0.503-0.196,0.068c-0.985-1.076-0.854-0.743-0.863-0.512
			c-0.006,0.523-0.642,0.242-1.202-0.047c-0.563-0.28-1-0.55-1.29,0.202c0.264,0.444,0.328,0.225,0.738,1.176
			c-0.212,0.157-0.451,0.352-0.876-0.362c-0.109-0.577,0.07-0.366-0.109-1.034c-0.242-0.477-0.356-0.449-0.489-0.457
			c-0.616-0.025-1.313-0.019-2.089-0.115c-0.207-0.024-0.426-0.021-0.659-0.008c-0.138-0.002-0.188,0.031-0.406,0.005l-1.071-0.23
			c-1.426-0.311-2.841-0.644-4.189-1.139c-4.205-1.547-8.562-2.61-12.773-4.122c-3.781-1.362-7.714-2.297-11.521-3.586
			c-1.724-0.589-3.704-0.426-5.204-1.626c-0.984-0.79-2.156-0.788-3.346-0.805c-0.729-0.006-1.663,0.079-1.893-0.739
			c-0.169-0.598-0.457-0.873-0.798-1.033c-0.171-0.079-0.354-0.131-0.544-0.179l-0.285-0.074c-0.08-0.021-0.287-0.089-0.424-0.139
			c-1.504-0.541-2.954-0.469-4.361-0.761c-3.595-0.743-7.008-2.056-10.515-3.357c-1.949,1.394-3.912,2.821-5.777,4.418
			c-1.344,1.152-2.83,2.012-4.274,3.006c-0.719,0.496-1.424,1.021-2.066,1.613c-0.16,0.147-0.317,0.3-0.468,0.456
			c-0.097,0.116-0.179,0.23-0.263,0.354c-0.164,0.247-0.31,0.517-0.432,0.814c-0.135,0.327-0.43,0.718-0.76,0.579
			c-1.289-0.541-1.567,0.532-2.2,1.053c-2.527,2.071-4.993,4.225-7.619,6.161c-3.547,2.614-6.79,5.619-10.302,8.271
			c-3.439,2.599-6.887,5.187-10.406,7.674c-0.753,0.535-0.777,1.775-1.621,2.037c-1.989,0.613-3.431,1.929-4.979,3.198l-1.084,0.882
			c-0.267,0.213-0.541,0.42-0.816,0.622c-0.552,0.404-1.113,0.788-1.669,1.173c-1.117,0.773-2.194,1.535-3.307,2.596
			c-0.178,0.169-0.37,0.213-0.487-0.261c0.206-0.987,0.457-0.475,0.652-1.139c-0.172-1.098-0.639,0.129-0.714-1.349
			c0.305-0.999,0.587-1.829,0.752-1.159c0.401,1.457,0.789,0.201,1.139-0.018c0.146-0.093,0.248-0.42,0.43-0.279
			c0.161,0.308,0.049,0.881,0.266,1.142c0.197-0.023,0.479-0.255,0.38-0.762c-0.302-1.587,0.051-1.473,0.219-1.808
			c0.218-0.464,0.703-0.222,1.081-0.45c0.169,0.461,0.308,0.837,0.444,1.206c0.438,0.168,0.795,0.078,0.988-0.2
			c0.096-0.139,0.151-0.325,0.156-0.551c0.003-0.112-0.007-0.235-0.031-0.367c-0.03-0.127,0.028-0.337,0.016-0.515
			c0.001-0.612,0.382-0.853,0.644-1.229c0.938-1.351,2.508-1.884,3.637-2.968c1.423-1.365,3.127-2.319,4.561-3.499
			c0.37,0.133,0.386,0.36,0.495,0.541c0.136,0.223,0.302,0.424,0.454,0.633c0.905-0.535,1.206-0.98,1.123-1.621
			c-0.214-1.679,0.675-2.651,2.329-2.466c-0.278,0.322-0.527,0.611-0.894,1.036c0.987-0.167,1.69-0.499,2.23-0.991
			c1.211-1.117,2.753-1.86,3.289-3.759c0.26-0.924,1.008-1.664,2.135-1.457c1.364,0.25,2.396-0.255,2.398-1.619
			c0.001-0.889,0.407-1.406,1.028-1.459c2.65-0.247,3.855-2.812,6.367-3.251c-0.532-0.038-0.941,0.413-1.528-0.233
			c0.398-1.47,1.049-1.783,2.389-1.134c0.562,0.272,0.887-0.137,0.806-0.464c-0.424-1.691,0.583-2.158,1.589-2.332
			c1.148-0.198,1.786-0.914,2.539-1.635c0.625-0.598,1.188-1.296,1.854-1.849c0.333-0.276,0.691-0.517,1.095-0.689
			c0.302-0.099,1.133-0.481,1.812-0.607c0.681-0.143,1.195-0.587,1.374-1.302c0.356-1.422,1.48-2.037,2.486-2.553
			c0.606,0.16-0.135,0.972,0.708,1.109c0.756-2.44,2.99-3.724,4.704-5.655c0.917-1.026,2.003-2.07,2.808-1.212
			c0.039,0.06,0.071,0.118,0.103,0.18c0.383,0.724,0.994,0.831,1.578,0.99c0.936,0.262,1.919,0.229,2.598,1.7
			c0.332,0.718,1.055,0.739,1.658,0.312c0.852-0.614,1.48-1.87,3.211-1.21c1.762,0.669,3.455,1.588,5.056,2.341
			c-0.061,0.787-0.916,0.343-1.215,0.764c0.491,0.16,0.973,0.352,1.447,0.548c0.453,0.188,0.904,0.374,1.352,0.56
			c0.574,0.232,1.167,0.391,1.85,0.277c1.833-0.306,3.507,0.154,4.946,1.087c0.905,0.579,1.897,0.761,2.816,1.19
			c1.127,0.525,1.802,0.061,2.495-1.354c-1.746-0.632-3.403-1.438-5.175-1.827c-1.484-0.325-2.925-0.784-4.369-1.233l-2.452-0.747
			c-1.272-0.397-2.544-0.771-3.811-1.101c-2.381-0.618-4.793-1.677-7.612-3.58c1.451,0.088,2.481,1.215,3.415,0.679
			c-2.802-0.963-5.583-1.858-8.359-2.867c-3.239,2.35-6.455,4.438-10.079,6.078c1.045,0.166,1.88-1.216,2.97-1.062
			c-0.412,0.376-0.717,0.682-1.04,0.953c-1.833,1.536-3.686,2.956-5.57,4.336l-1.239,0.896l-0.799,0.558l-1.612,1.096
			c-0.527,0.354-1.001,1.141-1.774,0.766c-1.005-0.488-1.305,0.096-1.521,0.655c-0.781,2.004-3.128,2.27-3.671,4.532
			c-0.466-0.538-0.237-1.104-0.77-1.108c-0.947-0.008-1.418,0.663-1.995,1.369c0.631,0.142,0.945-0.552,1.617,0.205
			c-0.625,0.383-0.534,1.987-2.038,0.722c-0.138-0.115-0.488,0.069-0.712,0.166c-0.72,0.312-1.121,0.962-1.498,1.658
			c-0.302,0.556-0.493,1.332-1.27,1.293c-0.854-0.044-1.417,0.396-1.883,0.898c-1.814,1.944-4.258,3.145-5.728,5.504
			c-0.438,0.7-1.163,1.125-2.203,0.536c-0.552-0.312-0.674,0.048-0.96,0.303c-1.034,0.912-2.019,1.897-3.272,2.514
			c-1.179,0.583-2.61,0.733-3.557,1.705c-0.14,0.142-0.474,0.132-0.32,0.611c0.355,1.091-0.118,1.562-1.067,1.129
			c-0.519-0.24-0.786,0.043-1.041,0.289c-0.458,0.442-0.863,0.95-1.303,1.449c0.55,0.325,0.634-0.461,1.138-0.117
			c-1.077,0.993-1.615,1.49-2.252,1.791c-0.318,0.15-0.661,0.253-1.108,0.343c-0.113,0.021-0.231,0.043-0.356,0.066
			c-0.055,0.005-0.147,0.036-0.176,0.02l-0.084-0.057c-0.115-0.079-0.243-0.175-0.38-0.289c0.598,1.087,0.565,1.4,0.413,1.469
			c-0.161,0.074-0.426-0.106-0.511,0.151c-0.368-1.301-0.16-1.153-0.379-1.857c-0.116,0.084-0.204,0.148-0.265,0.192
			c0.604,1.917,0.039,1.022,0.042,1.491c-0.303-1.367-0.326-1.132-0.318-0.799c0.012,0.407-0.026,0.857-0.158,0.421
			c-0.322-1.161-0.309-0.553-0.471,0.283c-0.059,0.342-0.15,0.707-0.205,0.331c-0.09-0.679-0.153-0.846-0.244-0.847
			c-0.085-0.005-0.199,0.157-0.258,0.042c-0.069-0.154-0.203,0.077-0.367,0.325c-0.158,0.243-0.347,0.504-0.371,0.296
			c-0.024-0.266-0.167-0.125-0.375,0.12c-0.202,0.24-0.469,0.586-0.591,0.621c-0.036,0.009-0.163,0.202-0.309,0.426
			c-0.187,0.244-0.421,0.511-0.032-0.353c0.156-0.348,0.304-0.682-0.346,0.386c-0.12,0.196-0.157,0.216-0.083,0.067
			c0.463-0.92,0.383-0.88,0.315-0.897c-0.067-0.008-0.123-0.071,0.394-0.934c0.172-0.287,0.156-0.316-0.06-0.04
			c-1.014,1.269-0.292,0.056-0.206-0.175c0.066-0.2,0.103-0.335-0.202-0.106c-0.307,0.227-0.394,0.17-0.301-0.039
			c0.301-0.37,1.12-1.124,1.242-1.324c-0.987,0.913-0.967,0.745-0.888,0.561c0.71-0.57,0.759-0.545,1.167-0.877
			c0.589-0.6,0.226-0.289,0.103-0.239c-0.289,0.171-1.065,0.512-0.206-0.187c0.441-0.34,0.438-0.347,0.117-0.213
			c-0.211,0.09-0.509,0.209-0.429,0.125c0.485-0.452-0.047-0.445-0.027-0.739c0.01-0.093,0.557-0.209,0.863-0.25
			c0.103-0.016,0.152-0.026,0.165-0.036c0.013-0.024-0.011,0.048-0.06-0.184c-0.095-0.325-0.277-0.647-0.423-0.965
			c-0.291-0.633-0.434-1.243,0.562-1.811c-0.563-1.271,0.135-2.614-0.209-4.117c-0.978,1.365-0.054,2.675-0.614,3.947
			c-0.999-0.573-0.92-1.165-0.761-1.808c0.466-1.849,0.125-3.833,1.671-5.498c0.054-0.056,0.026-0.165,0.003-0.243
			c-0.441-1.514,0.038-3.145-1.08-4.459c0.279-0.431,1.069-0.085,1.035-0.691c-0.202-0.329-1.218-0.458-0.835-0.99
			c0.696-0.966,0.038-1.98,0.391-2.937c0.197-0.548,0.08-0.837-0.651-1.183c-0.93-0.439-1.667-1.143-1.282-2.116
			c0.929-0.097,1.172,0.725,2.208,0.631c0.372-1.236,0.453-2.506-0.172-3.746c-0.155-0.303-0.591-0.687-0.332-0.891
			c0.838-0.659,0.365-1.38,0.478-2.091c0.424-2.765-0.107-5.513,0.059-8.266c0.121-1.987,0.153-3.975,0.139-5.961l-0.153-7.825
			c-0.072-3.414-0.126-6.813,0.003-10.283c0.07-2.058-0.406-3.847-0.566-5.734c-1.225-0.688-2.287-1.446-3.01-2.484
			c-0.157-0.227-0.663-0.411-0.956-0.585c-0.751,0.082,0.347,0.866-0.75,0.819c-1.035-0.663-2.949-1.106-2.608-2.323
			c0.227-0.832-0.387-1.121-1.156-1.596c-3.822-2.327-8.518-5.933-9.913-6.356c-1.721-0.757-3.028-2.281-4.693-3.169
			c-3.459-1.844-6.3-4.636-9.911-6.242c-1.771-0.79-2.876-2.583-4.763-3.253c-1.093-0.388-2.03-1.105-3.025-1.694
			c-0.553-0.322-0.992-0.747-0.569-1.732c-0.532-0.029-1.145,0.4-1.596,0.104c-1.72-1.146-3.873-1.692-5.195-3.358
			c-0.948-1.188-2.274-1.917-3.416-2.636c-1.008-0.638-2.057-1.201-2.886-2.117c-0.105-0.118-0.278-0.206-0.443-0.208
			c-0.308-0.002-0.599-0.035-0.878-0.092c-0.14-0.028-0.276-0.062-0.41-0.103l-0.198-0.063c-0.067-0.023-0.041,0.014-0.064,0.016
			c-0.095,0.079-0.154,0.088-0.199,0.08c-0.095-0.02-0.115-0.091-0.443,0.085c-0.321,0.143,0.792-0.788,0.651-0.697
			c-0.322,0.132,0.042-0.14-0.498,0.065c-0.375,0.123-0.278,0.007-0.23-0.054c0.038-0.067,0.024-0.08-0.817,0.088
			c-0.124,0.024-0.13,0.008-0.001-0.033c0.676-0.209,0.618-0.213,0.535-0.231c-0.076-0.014-0.177-0.042,0.605-0.173
			c0.109-0.018,0.132-0.025,0.013-0.011c-1.723,0.204-1.219,0.053-0.444-0.028c0.426-0.051,0.45-0.051-0.339-0.04
			c-0.648,0.049,0.224,0.019-0.781,0.093c-0.869,0.042-0.596,0-0.39-0.025c0.497-0.065,0.593-0.086-0.138-0.113
			c-1.171-0.054-0.425-0.135-0.075-0.156c0.489-0.04,0.386-0.081,0.101-0.156c-0.279-0.072-0.739-0.178-0.795-0.24
			c-0.02-0.02,0.05-0.028,0.128-0.032c0.393,0.011,0.753,0.048-0.292-0.19c-0.032-0.007,0.002-0.003,0.058,0.005
			c2.096,0.302,3.073,0.566,0.504-0.108c-0.303-0.082,0.11-0.002,0.199,0.007c0.105,0.007,0.499,0.093,0.299,0.024
			c-0.985-0.35-0.696-0.423-0.209-0.361c0.148,0.025-0.669-0.353,0.741,0.168c0.128,0.122,0.275,0.226,0.435,0.32
			c0.12,0.04,0.236,0.078,0.351,0.115c0.098-0.03,0.196-0.06,0.302-0.091c-0.972-0.43-0.419-0.148-1.887-0.77
			c-0.188-0.282,0.198-0.366,0.573-0.387c0.391-0.026,0.77,0.01,0.963-0.152c0.194,0.177,0.445,0.511,0.665,0.742
			c0.51,0.479,0.227,0.069,0.327,0.058c0.089-0.01,0.102,0.009-0.267-1.003c-0.145-0.415-0.084-0.529,0.02-0.557
			c0.052-0.014,0.114-0.006,0.174-0.005c0.012-0.001,0.003,0.003,0.033-0.004l0.138-0.036l0.273-0.078
			c0.181-0.054,0.36-0.113,0.533-0.181c-0.132,0.67-0.46,0.845-0.766,0.934c-0.037,0.007-0.105-0.056-0.036,0.236
			c0.07,0.119,0.138,0.235,0.205,0.35l0.02,0.036c0.017,0.009,0.071,0.005,0.104,0.008l0.228,0.001
			c0.151-0.002,0.299-0.011,0.444-0.028c0.582-0.067,1.122-0.26,1.619-0.648c-0.333-0.604-0.86,0.048-1.257-0.736
			c0.635-0.886,1.601-0.781,2.5-1.02c0.101,0.986,0.25,1.76,1.147,1.423c-0.113-1.729,0.251-2.011,2.954-2.203
			c-0.823,0.059-1.382,0.499-1.571,1.477c0.455,0.261,0.718-0.179,1.079-0.221c0.708-0.075,1.612,0.271,1.35-1.37
			c-0.066-0.413,0.824-0.876,1.021-0.372c0.456,1.165,1.176,0.767,1.498,0.657c1.721-0.579,3.52-1.001,5-2.246
			c1.05,0.627,2.955,0.049,4.296-1.319c-0.033-0.487-0.653,0.01-0.596-0.701c0.39-0.461,0.965-0.45,1.484-0.541
			c0.228,0.496-0.252,0.869,0.279,1.356c0.704-0.405,1.618-0.132,2.42-0.35c3.237-0.882,6.468-1.788,9.676-2.77l8.243-2.578
			l4.363-1.371l8.021-2.462c2.782-0.845,5.489-1.777,8.23-2.637c0.709-0.208,1.424-0.418,2.146-0.629
			c1.01-3.107,2.116-6.483,1.775-10.453c0.864,1.241,1.331,0.611,1.344-0.429c0.015-2.32,0.983-4.456,1.667-6.077
			c0.279-0.659,0.536-1.328,0.776-2.002c0.149-0.375,0.264-0.704,0.375-1.064c0.218-0.707,0.386-1.426,0.543-2.147
			c0.315-1.442,0.591-2.893,1.154-4.264c0.817-1.983,0.922-4.192,1.591-6.259c1.139-3.539,1.694-7.261,2.549-10.891
			c0.384-1.611,0.531-3.303,0.989-4.861c0.843-2.899,1.053-5.939,1.885-8.832c0.582-2.021,0.916-4.125,1.378-6.168l0.343-1.571
			l0.042-0.197l-0.001-0.054l-0.004-0.101l-0.002-0.206c0.003-0.275,0.038-0.557,0.141-0.796c0.211-0.484,0.172-1.129,0.143-1.925
			c-0.033-0.784-0.058-1.719,0.082-2.465c0.184-0.993,0.283-2.287,0.469-3.579l0.699-4.861l0.181,0.125
			c0.472,0.324,0.99,0.813,1.523,1.09c0.8,0.411,1.693,0.76,2.847,1.081c0.582,0.165,1.183,0.65,1.792,1.184
			c0.613,0.539,1.236,1.125,1.96,1.622c0.514,0.352,1.256,0.455,1.675,1.142c0.493,0.816,1.119,1.438,1.858,2.05
			c1.089,1.069,2.304,2.144,3.463,3.199c1.15,1.049,2.183,2.211,3.405,3.205c0.51,0.414,0.792,1.051,1.558,1.272
			c0.413,0.12,0.709,0.461,1.023,0.734c3.552,3.158,6.177,7.142,10.339,9.788c1.809,1.15,3.101,2.98,4.662,4.477
			c3.901,3.733,7.613,7.638,11.49,11.396c2.693,2.611,5.224,4.909,7.521,6.902c1.783-0.441,3.549-0.879,5.311-1.315
			c-0.033-0.377-0.445,0.131-0.414-0.601c0.977,0.328,2.041-0.006,3.027-0.24c0.288-0.066,0.571-0.156,0.848-0.256l0.421-0.159
			l0.507-0.173c0.675-0.233,1.349-0.467,2.039-0.612c3.54-0.736,7.021-1.781,10.429-3.141c2.761-1.099,5.428-2.547,8.009-4.218
			c0.794-0.511,1.299-1.438,1.907-2.389c-1.974,0.179-3.881-0.428-5.823-0.458c-4.263-0.07-8.527-0.697-12.8-0.714
			c-0.979-0.004-1.96-0.034-2.941-0.076l-1.472-0.072l-0.735-0.042c-0.067-0.027-0.097-0.056-0.145-0.085
			c-0.35-0.23-0.61-0.477-0.825-0.65l-0.365-0.284c-0.121-0.531-0.225-0.956-0.116-1.392l0.021-0.078l0.011-0.037l-0.146-0.238
			l-0.618-0.989l-1.267-1.958c-0.855-1.297-1.731-2.579-2.615-3.856c-1.767-2.553-3.564-5.084-5.293-7.666
			c-2.75-4.1-5.777-8.003-8.746-11.946l-6.76-8.933l-10.035-13.088c-5.466-7.103-10.98-14.038-16.404-20.945L136.498,0
			l-29.531,6.743c-1.514,5.24-3.004,10.495-4.461,15.692c-2.076,7.403-4.115,14.667-6.279,21.849l-0.616,2.118l-0.564,2.037
			l-1.08,4.087c-0.707,2.729-1.401,5.462-2.155,8.177c-1.493,5.393-3.1,10.754-4.632,16.137l-3.764,13.451
			c-0.12,0.509-0.374,0.929-0.507,1.404l-0.178,0.066l-0.75,0.329l-0.391,0.178l-0.2,0.092l-1.181,0.391l-9.729,3.236l-20.991,7.032
			l-8.803,2.895l-4.401,1.449l-7.611,2.449L0,119.218v28.043c1.217,0.765,2.443,1.533,3.645,2.292L22.24,161.34l7.764,5.025
			c1.743,1.125,3.493,2.239,5.279,3.296c5.144,3.048,10.067,6.433,15.216,9.471c4.539,2.681,8.795,5.813,13.227,8.668l3.384,2.159
			l1.698,1.069l0.531,0.323l0.366,0.214l2.998,1.762l0.198,0.12l0.102,2.655l0.123,3.934c0.096,3.694,0.461,7.391,0.339,11.08
			c-0.177,5.521,0.231,11.028,0.36,16.54c0.049,2.108,0.194,4.228,0.206,6.328c0.016,2.686,0.015,5.375,0.106,8.062
			c0.019,0.6,0.141,1.207,0.232,1.81c0.046,0.302,0.084,0.602,0.098,0.9c0.007,0.148,0.008,0.297,0,0.445
			c-0.007,0.2-0.022,0.438-0.047,0.655c-0.39,3.428,0.01,6.831,0.344,9.954c0.218,2.043,0.205,4.139,0.193,6.264
			c-0.012,2.117-0.023,4.264,0.195,6.21c0.226,1.996,0.317,4.117,0.363,6.281l22.256,8.037c2.883-2.252,5.744-4.498,8.535-6.656
			l9.146-7.052l2.25-1.74l1.925-1.509l3.206-2.579c7.161-5.818,14.194-11.801,21.42-17.536c3.553-2.818,7.051-5.707,10.521-8.631
			l2.597-2.199l2.009-1.788l4.235-3.765l0.358,0.088c6.375,1.516,16.039,4.212,24.68,6.304c7.482,1.828,14.921,3.813,22.414,5.613
			l2.279,0.54l1.141,0.264l1.033,0.223l3.97,0.808c2.558,0.497,4.926,0.912,7.116,1.285c3.034,0.515,5.729,0.918,8.08,1.191
			c-0.454-0.436-0.635-0.504-0.815-0.566C232.731,244.493,231.758,244.344,230.685,244.106z M217.695,238.146
			c-0.929,0.069-1.678,0.142-2.925-0.81C216.358,237.325,216.9,237.539,217.695,238.146z M149.329,216.887
			c-0.806,1.3-1.615,2.245-2.407,2.83c-0.099,0.072-0.198,0.141-0.295,0.201c-0.059,0.033-0.118,0.062-0.179,0.084
			c-0.121,0.046-0.244,0.073-0.369,0.079c-0.25,0.013-0.509-0.057-0.767-0.211C145.67,219.178,147.743,218.088,149.329,216.887z
			 M44.786,137.695c0.153,0.396,0.049,0.297-0.105,0.18c-0.147-0.119-0.345-0.258-0.214,0.007
			C44.17,137.323,44.362,137.208,44.786,137.695z M95.401,244.799c0.112,0.314-0.044,0.358-0.386,0.627
			c-0.562-0.037-0.776-0.146-0.845-0.286c-0.034-0.033-0.033-0.242-0.021-0.402c0.015-0.17,0.03-0.351,0.045-0.535
			C94.913,244.418,95.29,244.567,95.401,244.799z M93.101,255.553c-0.26-0.222-0.108-0.796,1.139-2.126
			C93.936,254.058,94.955,253.53,93.101,255.553z M94.243,252.517c-1.293,0.96-1.803,1.088-1.844,0.596
			c-0.053-0.588,0.605-1.354,1.917-2.318C95.758,250.371,94.588,251.604,94.243,252.517z M93.659,249.984
			c-0.142-0.198-0.662-0.197-0.946-0.352c-0.284-0.146-0.333-0.459,0.473-1.086c0.225-0.172-0.041-0.36-0.085-0.584
			c0.672-0.338,1.503-0.221,1.818-0.767C95.705,247.639,95.013,248.852,93.659,249.984z M94.196,223.514
			c-1.305-0.52-1.305-0.519-0.505-1.345c0.261-0.267,0.17-0.549,0.018-0.815c-0.321-0.555-0.143-1.034,0.391-1.518
			C94.76,221.077,94.444,222.284,94.196,223.514z M92.96,207.377c0.75,1.052,1.473,2.047,0.916,3.316
			C92.542,209.228,92.415,208.768,92.96,207.377z M92.739,181.761c0.286,0.146,0.586,0.281,0.893,0.412
			c0.329,1.401,0.855,2.801-0.052,4.943c-1.272-1.221-1.545-2.743-0.804-4.478C92.684,182.363,92.672,182.071,92.739,181.761z
			 M93.291,232.872c0-0.015-0.003-0.029-0.003-0.045c0.021,0.013,0.038,0.029,0.058,0.043c0.969-1.579,0.044-3.176,0.115-4.763
			c1.193-0.002,1.957,0.458,1.55,1.269c-0.633,1.258-0.086,2.425-0.087,3.63c-0.004,0.199-0.064,0.4-0.1,0.605
			c-0.89,0.137-1.055-0.442-1.477-0.741c0,0.001,0,0.001-0.001,0.002C93.325,232.875,93.31,232.871,93.291,232.872
			c0.009,0.92,0.675,1.8,0.214,2.928c-0.485-1.23-0.908-2.302-1.349-3.421C92.812,232.373,92.814,232.902,93.291,232.872z
			 M93.554,264.407l0.097-0.127c0.475-0.618,0.868-1.184,0.039,0.763c-0.36,0.414-0.725,0.837-1.036,1.15
			c-0.089-0.198-0.093-0.567,0.098-1.297c0.128-0.49,0.258-1.012,0.076-0.907c-0.588,0.342-0.81-0.115,0.69-3.126
			c0.55-1.104,0.691-1.674,0.057-0.928c-1.185,1.381-0.985,0.424-1.317,0.324c-0.375-0.161,1.014-2.249,1.621-3.354
			c-1.68,1.607-1.682,1.396-0.226-1.378c0.866-0.561,1.188-0.602,0.973,0.106c-0.241,0.796-0.422,1.617,0.232,1.201
			c0.147-0.094,0.22-0.036,0.08,0.268c-0.951,2.105-0.378,2.067-0.074,2.235c0.143,0.101,0.022,0.724-0.652,2.18
			C92.765,264.661,93.146,264.65,93.554,264.407z M96.329,263.575c-0.83,0.789-1.262,0.575-2.035,1.225
			c1.632-3.67,0.008-1.166,1.288-3.945c0.763-1.163,0.877-0.977,1.189-1.2c-0.188,0.588-0.57,1.209-0.803,1.837
			c0.741-0.769,0.906-0.241,1.202,0.251c0.653-1.608,0.278-1.149,0.541-1.968c0.631-1.048,0.879-1.148,1.221-1.268
			c-0.301,0.585-0.486,0.943-0.696,1.351c0.008,0.898,0.098,1.906,0.924,0.707c-0.015-0.361-0.162-0.414,0.184-1.477
			c0.295-0.912,0.382-0.816,0.519-0.989c0.343-0.433,0.793-1.534,0.935-1.056c-0.36,1.402-0.704,2.236-1.012,2.567
			c0.202,0.923,1.026-1.864,1.371-2.147c0.304-0.241,0.67-1.335,0.696,0.311c0.015,0.521,0.441-0.042,0.822-0.146
			c-0.713,1.688-1.563,3.089-2.131,3.123C99.287,260.81,97.978,261.995,96.329,263.575z M103.197,264.542
			c-0.258-0.507-1.074,0.698-1.657,1.122c-0.407,0.297-0.975,1.108-0.877-0.61c0.424-0.535,0.736-0.762,1.016-0.57
			c0.544,0.371,1.245-0.132,1.888-1.045c0.475-0.678,0.78-0.505,1.064,0.642C104.123,264.639,103.703,265.473,103.197,264.542z
			 M135.179,241.284l2.624-2.318C137.321,240.227,136.356,240.916,135.179,241.284z M141.747,234.294
			c-0.464,1.129-1.49,0.976-2.689,0.857C139.975,233.65,140.109,233.612,141.747,234.294z M140.199,237.215
			c1.641-2.111,3.634-3.205,5.479-4.671C144.553,234.974,142.544,236.021,140.199,237.215z M144.133,239.993
			c0.513-0.313,0.755-1.643,2.137-1.546C145.955,239.839,144.482,239.501,144.133,239.993z M148.519,238.024
			c0.241-0.923,0.263-2.068,1.918-1.997C149.892,237.162,149.304,237.702,148.519,238.024z M154.399,226.225
			c-0.536,0.478-1.083,0.924-1.665,1.328c-0.311,0.217-0.558,0.371-0.809,0.508c-0.258,0.142-0.525,0.271-0.805,0.384
			c0.153-0.272,0.326-0.521,0.514-0.75c0.186-0.228,0.377-0.428,0.676-0.685c0.55-0.479,1.148-0.903,1.754-1.309
			c1.216-0.813,2.442-1.534,3.536-2.576C156.503,224.189,155.469,225.272,154.399,226.225z M157.8,229.27
			c0.975-0.926,1.48-3.067,2.914-3.615C160.596,227.319,159.753,228.411,157.8,229.27z M182.905,228.724
			c-2.173,0.494-3.499-0.666-4.92-1.432C179.539,227.757,181.197,227.823,182.905,228.724z M164.008,226.119
			c-0.19,0.229-0.474,0.29-0.809,0.109c-0.229,0.111-0.49,0.083-0.776-0.143c0.219-0.242,0.432-0.516,0.642-0.804
			c1.079-0.122,2.254-0.487,3.593,0.393C165.663,225.583,164.688,225.322,164.008,226.119z M166.044,224.112
			c2.001-0.073,4.297,0.392,6.333,1.632C170.155,225.271,168.106,225.227,166.044,224.112z M177.371,228.796
			c5.665,1.118,11.274,2.416,16.616,4.561C188.358,232.125,182.747,230.844,177.371,228.796z"/>
		<path fill-rule="evenodd" clip-rule="evenodd" fill="#03A9F4" d="M93.346,232.87c-0.02-0.014-0.037-0.03-0.058-0.043
			c0,0.016,0.003,0.03,0.003,0.045c0.019-0.001,0.034,0.003,0.054,0C93.346,232.871,93.346,232.871,93.346,232.87z"/>
		<path fill-rule="evenodd" clip-rule="evenodd" fill="#03A9F4" d="M220.198,228.993c-0.288,0.131-0.585,0.166-0.975,0.345
			l-0.2,0.083c-0.195-0.021-0.506-0.084-0.753-0.126l-1.566-0.303c-1.04-0.214-2.073-0.453-3.094-0.727
			c-2.042-0.547-4.037-1.227-5.955-2.099c-1.867-0.845-3.803-1.471-5.744-1.79c-2.309-0.378-4.16-1.385-5.88-2.928
			c-0.495-0.447-1.155-0.663-1.87-0.591c-0.409,0.381-0.033,0.96-0.451,1.352c-0.65,0.116-1.349,0.317-1.965-0.037
			c-0.014-0.342,0.281-0.201,0.384-0.473c-0.75-0.773-1.498-1.587-2.586-1.815c0.515,0.119,1.028,0.238,1.6,0.37
			c-0.161-0.744-0.674-0.909-1.009-1.402c5.601,1.755,11.2,3.509,16.944,5.309c-0.066,0.056-0.197,0.494-0.247,0.305
			c-0.002-0.01-0.078,0.023-0.121,0.039c-0.133,0.04-0.26,0.086-0.223,0.316c0.056,0.049,0.107,0.142,0.181,0.151
			c1.73,0.289,3.458,0.577,5.191,0.866c0.396,0.072,0.804,0.114,1.055,0.588c0.422,0.798,1.234,1.015,1.956,0.953
			c0.986-0.085,1.867,0.121,2.713,0.432c0.423,0.154,0.836,0.335,1.249,0.519l0.311,0.138c0.109,0.048,0.225,0.098,0.204,0.098
			c0.03,0.026,0.062,0.05,0.095,0.068C219.718,228.78,220.018,228.076,220.198,228.993z"/>
		<path fill-rule="evenodd" clip-rule="evenodd" fill="#03A9F4" d="M190.613,226.898l2.757,0.998
			C192.171,228.328,191.438,227.488,190.613,226.898z"/>
		<path fill-rule="evenodd" clip-rule="evenodd" fill="#03A9F4" d="M94.294,264.799c1.632-3.67,0.008-1.166,1.288-3.945
			c0.763-1.163,0.877-0.977,1.189-1.2c-0.188,0.588-0.57,1.209-0.803,1.837c0.741-0.769,0.906-0.241,1.202,0.251
			c0.653-1.608,0.278-1.149,0.541-1.968c0.631-1.048,0.879-1.148,1.221-1.268c-0.301,0.585-0.486,0.943-0.696,1.351
			c0.008,0.898,0.098,1.906,0.924,0.707c-0.015-0.361-0.162-0.414,0.184-1.477c0.295-0.912,0.382-0.816,0.519-0.989
			c0.343-0.433,0.793-1.534,0.935-1.056c-0.36,1.402-0.704,2.236-1.012,2.567c0.202,0.923,1.026-1.864,1.371-2.147
			c0.304-0.241,0.67-1.335,0.696,0.311c0.015,0.521,0.441-0.042,0.822-0.146c-0.713,1.688-1.563,3.089-2.131,3.123
			c-1.258,0.061-2.566,1.245-4.216,2.825C95.499,264.364,95.066,264.15,94.294,264.799z"/>
		<path fill-rule="evenodd" clip-rule="evenodd" fill="#03A9F4" d="M93.689,265.042c-0.36,0.414-0.725,0.837-1.036,1.15
			c-0.089-0.198-0.093-0.567,0.098-1.297c0.128-0.49,0.258-1.012,0.076-0.907c-0.588,0.342-0.81-0.115,0.69-3.126
			c0.55-1.104,0.691-1.674,0.057-0.928c-1.185,1.381-0.985,0.424-1.317,0.324c-0.375-0.161,1.014-2.249,1.621-3.354
			c-1.68,1.607-1.682,1.396-0.226-1.378c0.866-0.561,1.188-0.602,0.973,0.106c-0.241,0.796-0.422,1.617,0.232,1.201
			c0.147-0.094,0.22-0.036,0.08,0.268c-0.951,2.105-0.378,2.067-0.074,2.235c0.143,0.101,0.022,0.724-0.652,2.18
			c-1.45,3.144-1.068,3.133-0.66,2.89l0.097-0.127C94.126,263.662,94.519,263.096,93.689,265.042z"/>
		<path fill-rule="evenodd" clip-rule="evenodd" fill="#03A9F4" d="M177.371,228.796c5.665,1.118,11.274,2.416,16.616,4.561
			C188.358,232.125,182.747,230.844,177.371,228.796z"/>
		<path fill-rule="evenodd" clip-rule="evenodd" fill="#03A9F4" d="M93.101,247.962c0.672-0.338,1.503-0.221,1.818-0.767
			c0.786,0.443,0.094,1.656-1.26,2.788c-0.142-0.198-0.662-0.197-0.946-0.352c-0.284-0.146-0.333-0.459,0.473-1.086
			C93.41,248.375,93.145,248.186,93.101,247.962z"/>
		<path fill-rule="evenodd" clip-rule="evenodd" fill="#03A9F4" d="M94.243,252.517c-1.293,0.96-1.803,1.088-1.844,0.596
			c-0.053-0.588,0.605-1.354,1.917-2.318C95.758,250.371,94.588,251.604,94.243,252.517z"/>
		<path fill-rule="evenodd" clip-rule="evenodd" fill="#03A9F4" d="M93.345,232.871c0.971-1.579,0.045-3.176,0.11-4.764
			c1.198-0.002,1.962,0.458,1.555,1.269c-0.633,1.258-0.086,2.425-0.087,3.63c-0.004,0.199-0.064,0.4-0.1,0.605
			c-0.931,0.144-1.065-0.501-1.535-0.784L93.345,232.871z"/>
		<path fill-rule="evenodd" clip-rule="evenodd" fill="#03A9F4" d="M100.663,265.053c0.424-0.535,0.736-0.762,1.016-0.57
			c0.544,0.371,1.245-0.132,1.888-1.045c0.475-0.678,0.78-0.505,1.064,0.642c-0.508,0.56-0.928,1.394-1.434,0.462
			c-0.258-0.507-1.074,0.698-1.657,1.122C101.133,265.96,100.565,266.772,100.663,265.053z"/>
		<path fill-rule="evenodd" clip-rule="evenodd" fill="#03A9F4" d="M93.581,187.117c-1.272-1.221-1.545-2.743-0.804-4.478
			c-0.093-0.276-0.104-0.568-0.037-0.878c0.286,0.146,0.586,0.281,0.893,0.412C93.961,183.575,94.488,184.974,93.581,187.117z"/>
		<path fill-rule="evenodd" clip-rule="evenodd" fill="#03A9F4" d="M145.678,232.544c-1.125,2.43-3.134,3.477-5.479,4.671
			C141.84,235.104,143.833,234.01,145.678,232.544z"/>
		<path fill-rule="evenodd" clip-rule="evenodd" fill="#03A9F4" d="M157.599,223.125c-1.096,1.063-2.13,2.146-3.2,3.1
			c-0.536,0.478-1.083,0.924-1.665,1.328c-0.311,0.217-0.558,0.371-0.809,0.508c-0.258,0.142-0.525,0.271-0.805,0.384
			c0.153-0.272,0.326-0.521,0.514-0.75c0.186-0.228,0.377-0.428,0.676-0.685c0.55-0.479,1.148-0.903,1.754-1.309
			C155.279,224.888,156.506,224.167,157.599,223.125z"/>
		<path fill-rule="evenodd" clip-rule="evenodd" fill="#03A9F4" d="M166.044,224.112c2.001-0.073,4.297,0.392,6.333,1.632
			C170.155,225.271,168.106,225.227,166.044,224.112z"/>
		<path fill-rule="evenodd" clip-rule="evenodd" fill="#03A9F4" d="M157.8,229.27c0.975-0.926,1.48-3.067,2.914-3.615
			C160.596,227.319,159.753,228.411,157.8,229.27z"/>
		<path fill-rule="evenodd" clip-rule="evenodd" fill="#03A9F4" d="M166.658,225.674c-0.995-0.092-1.97-0.353-2.649,0.444
			c-0.19,0.229-0.474,0.29-0.809,0.109c-0.229,0.111-0.49,0.083-0.776-0.143c0.219-0.242,0.432-0.516,0.642-0.804
			C164.144,225.16,165.319,224.794,166.658,225.674z"/>
		<path fill-rule="evenodd" clip-rule="evenodd" fill="#03A9F4" d="M94.1,219.836c0.66,1.24,0.344,2.447,0.096,3.678
			c-1.305-0.52-1.305-0.519-0.505-1.345c0.261-0.267,0.17-0.549,0.018-0.815C93.388,220.799,93.566,220.32,94.1,219.836z"/>
		<path fill-rule="evenodd" clip-rule="evenodd" fill="#03A9F4" d="M177.985,227.292c1.554,0.465,3.212,0.53,4.92,1.432
			C180.732,229.218,179.406,228.058,177.985,227.292z"/>
		<path fill-rule="evenodd" clip-rule="evenodd" fill="#03A9F4" d="M92.96,207.377c0.75,1.052,1.473,2.047,0.916,3.316
			C92.542,209.228,92.415,208.768,92.96,207.377z"/>
		<path fill-rule="evenodd" clip-rule="evenodd" fill="#03A9F4" d="M139.057,235.152c0.918-1.502,1.052-1.54,2.689-0.857
			C141.283,235.423,140.256,235.27,139.057,235.152z"/>
		<path fill-rule="evenodd" clip-rule="evenodd" fill="#03A9F4" d="M149.329,216.887c-0.806,1.3-1.615,2.245-2.407,2.83
			c-0.099,0.072-0.198,0.141-0.295,0.201c-0.059,0.033-0.118,0.062-0.179,0.084c-0.121,0.046-0.244,0.073-0.369,0.079
			c-0.25,0.013-0.509-0.057-0.767-0.211C145.67,219.178,147.743,218.088,149.329,216.887z"/>
		<path fill-rule="evenodd" clip-rule="evenodd" fill="#03A9F4" d="M150.437,236.027c-0.545,1.135-1.132,1.675-1.918,1.997
			C148.759,237.101,148.782,235.956,150.437,236.027z"/>
		<path fill-rule="evenodd" clip-rule="evenodd" fill="#03A9F4" d="M217.695,238.146c-0.929,0.069-1.678,0.142-2.925-0.81
			C216.358,237.325,216.9,237.539,217.695,238.146z"/>
		<path fill-rule="evenodd" clip-rule="evenodd" fill="#03A9F4" d="M94.24,253.427c-0.304,0.631,0.715,0.103-1.139,2.126
			C92.841,255.332,92.992,254.757,94.24,253.427z"/>
		<path fill-rule="evenodd" clip-rule="evenodd" fill="#03A9F4" d="M135.179,241.284l2.624-2.318
			C137.321,240.227,136.356,240.916,135.179,241.284z"/>
		<path fill-rule="evenodd" clip-rule="evenodd" fill="#03A9F4" d="M44.786,137.695c0.153,0.396,0.049,0.297-0.105,0.18
			c-0.147-0.119-0.345-0.258-0.214,0.007C44.17,137.323,44.362,137.208,44.786,137.695z"/>
		<path fill-rule="evenodd" clip-rule="evenodd" fill="#03A9F4" d="M93.288,232.827c-0.014,0.937,0.686,1.826,0.217,2.973
			c-0.485-1.23-0.908-2.302-1.349-3.421c0.682-0.006,0.652,0.572,1.189,0.492L93.288,232.827z"/>
		<path fill-rule="evenodd" clip-rule="evenodd" fill="#03A9F4" d="M94.194,244.203c0.719,0.216,1.095,0.364,1.207,0.597
			c0.112,0.314-0.044,0.358-0.386,0.627c-0.562-0.037-0.776-0.146-0.845-0.286c-0.034-0.033-0.033-0.242-0.021-0.402
			C94.164,244.568,94.179,244.387,94.194,244.203z"/>
		<path fill-rule="evenodd" clip-rule="evenodd" fill="#03A9F4" d="M144.133,239.993c0.513-0.313,0.755-1.643,2.137-1.546
			C145.955,239.839,144.482,239.501,144.133,239.993z"/>
	</g>
</g>
<g>
	<g>
		<path fill="#434343" d="M291.979,126.23c0,1.025-0.491,1.726-1.475,2.082L215.439,151.9c-0.177,0.042-0.402,0.063-0.669,0.063
			s-0.491-0.021-0.669-0.063l-43.699-13.808c-1.919,1.517-3.509,4.017-4.759,7.479s-2.009,7.448-2.275,11.957
			c2.814,1.61,4.221,4.048,4.221,7.312c0,3.075-1.297,5.471-3.886,7.166l3.886,29.016c0.089,0.629-0.088,1.193-0.539,1.686
			c-0.403,0.491-0.936,0.731-1.606,0.731h-12.872c-0.669,0-1.203-0.24-1.605-0.731c-0.45-0.492-0.628-1.057-0.539-1.686
			l3.892-29.016c-2.594-1.695-3.892-4.091-3.892-7.166c0-3.264,1.454-5.742,4.357-7.448c0.492-9.246,2.683-16.621,6.569-22.113
			l-22.317-6.966c-0.983-0.355-1.475-1.057-1.475-2.082c0-1.025,0.492-1.715,1.475-2.082l75.064-23.588
			c0.178-0.042,0.402-0.063,0.669-0.063s0.492,0.021,0.669,0.063l75.064,23.588C291.487,124.515,291.979,125.205,291.979,126.23z
			 M256.46,147.946l1.203,21.182c0.179,3.075-1.652,5.941-5.491,8.577c-3.845,2.636-9.096,4.718-15.753,6.267
			c-6.659,1.537-13.871,2.311-21.648,2.311c-7.771,0-14.989-0.773-21.646-2.311c-6.659-1.549-11.91-3.631-15.75-6.267
			c-3.844-2.636-5.674-5.502-5.496-8.577l1.208-21.182l38.468,12.134c0.983,0.313,2.055,0.47,3.217,0.47s2.233-0.156,3.217-0.47
			L256.46,147.946z"/>
	</g>
</g>
</svg>
